<?xml version="1.0" encoding="UTF-8" standalone="no"?>
<!DOCTYPE svg PUBLIC "-//W3C//DTD SVG 1.1//EN"
 "http://www.w3.org/Graphics/SVG/1.1/DTD/svg11.dtd">
<!-- Generated by graphviz version 2.47.3 (20210619.1520)
 -->
<!-- Title: dependencies Pages: 1 -->
<svg width="1380pt" height="174pt"
 viewBox="0.00 0.00 1380.00 173.80" xmlns="http://www.w3.org/2000/svg" xmlns:xlink="http://www.w3.org/1999/xlink">
<g id="graph0" class="graph" transform="scale(1 1) rotate(0) translate(4 169.8)">
<title>dependencies</title>
<polygon fill="white" stroke="transparent" points="-4,4 -4,-169.8 1376,-169.8 1376,4 -4,4"/>
<text text-anchor="middle" x="686" y="-8.2" font-family="sans-serif" font-size="14.00">dependencies</text>
<g id="clust1" class="cluster">
<title>cluster_HomePageModule</title>
<polygon fill="none" stroke="black" stroke-dasharray="1,5" points="8,-32.8 8,-157.8 1364,-157.8 1364,-32.8 8,-32.8"/>
</g>
<g id="clust2" class="cluster">
<title>cluster_HomePageModule_declarations</title>
<polygon fill="none" stroke="black" points="206,-40.8 206,-92.8 1356,-92.8 1356,-40.8 206,-40.8"/>
</g>
<g id="clust11" class="cluster">
<title>cluster_HomePageModule_imports</title>
<polygon fill="none" stroke="black" points="16,-40.8 16,-92.8 198,-92.8 198,-40.8 16,-40.8"/>
</g>
<!-- AdvertisingComponent -->
<g id="node1" class="node">
<title>AdvertisingComponent</title>
<polygon fill="#ffffb3" stroke="black" points="1347.93,-84.8 1200.07,-84.8 1200.07,-48.8 1347.93,-48.8 1347.93,-84.8"/>
<text text-anchor="middle" x="1274" y="-62.6" font-family="Times,serif" font-size="14.00">AdvertisingComponent</text>
</g>
<!-- HomePageModule -->
<g id="node9" class="node">
<title>HomePageModule</title>
<polygon fill="#8dd3c7" stroke="black" points="801.47,-149.8 798.47,-153.8 777.47,-153.8 774.47,-149.8 680.53,-149.8 680.53,-113.8 801.47,-113.8 801.47,-149.8"/>
<text text-anchor="middle" x="741" y="-127.6" font-family="Times,serif" font-size="14.00">HomePageModule</text>
</g>
<!-- AdvertisingComponent&#45;&gt;HomePageModule -->
<g id="edge1" class="edge">
<title>AdvertisingComponent&#45;&gt;HomePageModule</title>
<path fill="none" stroke="black" d="M1274,-84.81C1274,-107.29 1274,-142.8 1274,-142.8 1274,-142.8 811.62,-142.8 811.62,-142.8"/>
<polygon fill="black" stroke="black" points="811.62,-139.3 801.62,-142.8 811.62,-146.3 811.62,-139.3"/>
</g>
<!-- AllPostsComponent -->
<g id="node2" class="node">
<title>AllPostsComponent</title>
<polygon fill="#ffffb3" stroke="black" points="1182.28,-84.8 1053.72,-84.8 1053.72,-48.8 1182.28,-48.8 1182.28,-84.8"/>
<text text-anchor="middle" x="1118" y="-62.6" font-family="Times,serif" font-size="14.00">AllPostsComponent</text>
</g>
<!-- AllPostsComponent&#45;&gt;HomePageModule -->
<g id="edge2" class="edge">
<title>AllPostsComponent&#45;&gt;HomePageModule</title>
<path fill="none" stroke="black" d="M1118,-84.93C1118,-105.37 1118,-135.8 1118,-135.8 1118,-135.8 811.57,-135.8 811.57,-135.8"/>
<polygon fill="black" stroke="black" points="811.57,-132.3 801.57,-135.8 811.57,-139.3 811.57,-132.3"/>
</g>
<!-- HeaderComponent -->
<g id="node3" class="node">
<title>HeaderComponent</title>
<polygon fill="#ffffb3" stroke="black" points="1035.74,-84.8 914.26,-84.8 914.26,-48.8 1035.74,-48.8 1035.74,-84.8"/>
<text text-anchor="middle" x="975" y="-62.6" font-family="Times,serif" font-size="14.00">HeaderComponent</text>
</g>
<!-- HeaderComponent&#45;&gt;HomePageModule -->
<g id="edge3" class="edge">
<title>HeaderComponent&#45;&gt;HomePageModule</title>
<path fill="none" stroke="black" d="M975,-85.07C975,-103.36 975,-128.8 975,-128.8 975,-128.8 811.57,-128.8 811.57,-128.8"/>
<polygon fill="black" stroke="black" points="811.57,-125.3 801.57,-128.8 811.57,-132.3 811.57,-125.3"/>
</g>
<!-- HomePage -->
<g id="node4" class="node">
<title>HomePage</title>
<polygon fill="#ffffb3" stroke="black" points="895.92,-84.8 818.08,-84.8 818.08,-48.8 895.92,-48.8 895.92,-84.8"/>
<text text-anchor="middle" x="857" y="-62.6" font-family="Times,serif" font-size="14.00">HomePage</text>
</g>
<!-- HomePage&#45;&gt;HomePageModule -->
<g id="edge4" class="edge">
<title>HomePage&#45;&gt;HomePageModule</title>
<path fill="none" stroke="black" d="M857,-84.81C857,-100.85 857,-121.8 857,-121.8 857,-121.8 811.72,-121.8 811.72,-121.8"/>
<polygon fill="black" stroke="black" points="811.72,-118.3 801.72,-121.8 811.72,-125.3 811.72,-118.3"/>
</g>
<!-- ModalComponent -->
<g id="node5" class="node">
<title>ModalComponent</title>
<polygon fill="#ffffb3" stroke="black" points="799.88,-84.8 682.12,-84.8 682.12,-48.8 799.88,-48.8 799.88,-84.8"/>
<text text-anchor="middle" x="741" y="-62.6" font-family="Times,serif" font-size="14.00">ModalComponent</text>
</g>
<!-- ModalComponent&#45;&gt;HomePageModule -->
<g id="edge5" class="edge">
<title>ModalComponent&#45;&gt;HomePageModule</title>
<path fill="none" stroke="black" d="M741,-84.91C741,-84.91 741,-103.79 741,-103.79"/>
<polygon fill="black" stroke="black" points="737.5,-103.79 741,-113.79 744.5,-103.79 737.5,-103.79"/>
</g>
<!-- ProfileSummaryComponent -->
<g id="node6" class="node">
<title>ProfileSummaryComponent</title>
<polygon fill="#ffffb3" stroke="black" points="663.87,-84.8 490.13,-84.8 490.13,-48.8 663.87,-48.8 663.87,-84.8"/>
<text text-anchor="middle" x="577" y="-62.6" font-family="Times,serif" font-size="14.00">ProfileSummaryComponent</text>
</g>
<!-- ProfileSummaryComponent&#45;&gt;HomePageModule -->
<g id="edge6" class="edge">
<title>ProfileSummaryComponent&#45;&gt;HomePageModule</title>
<path fill="none" stroke="black" d="M577,-84.81C577,-100.85 577,-121.8 577,-121.8 577,-121.8 670.4,-121.8 670.4,-121.8"/>
<polygon fill="black" stroke="black" points="670.4,-125.3 680.4,-121.8 670.4,-118.3 670.4,-125.3"/>
</g>
<!-- StartPostComponent -->
<g id="node7" class="node">
<title>StartPostComponent</title>
<polygon fill="#ffffb3" stroke="black" points="471.89,-84.8 340.11,-84.8 340.11,-48.8 471.89,-48.8 471.89,-84.8"/>
<text text-anchor="middle" x="406" y="-62.6" font-family="Times,serif" font-size="14.00">StartPostComponent</text>
</g>
<!-- StartPostComponent&#45;&gt;HomePageModule -->
<g id="edge7" class="edge">
<title>StartPostComponent&#45;&gt;HomePageModule</title>
<path fill="none" stroke="black" d="M406,-85.07C406,-103.36 406,-128.8 406,-128.8 406,-128.8 670.33,-128.8 670.33,-128.8"/>
<polygon fill="black" stroke="black" points="670.33,-132.3 680.33,-128.8 670.33,-125.3 670.33,-132.3"/>
</g>
<!-- TabsComponent -->
<g id="node8" class="node">
<title>TabsComponent</title>
<polygon fill="#ffffb3" stroke="black" points="322.05,-84.8 213.95,-84.8 213.95,-48.8 322.05,-48.8 322.05,-84.8"/>
<text text-anchor="middle" x="268" y="-62.6" font-family="Times,serif" font-size="14.00">TabsComponent</text>
</g>
<!-- TabsComponent&#45;&gt;HomePageModule -->
<g id="edge8" class="edge">
<title>TabsComponent&#45;&gt;HomePageModule</title>
<path fill="none" stroke="black" d="M268,-84.93C268,-105.37 268,-135.8 268,-135.8 268,-135.8 670.13,-135.8 670.13,-135.8"/>
<polygon fill="black" stroke="black" points="670.13,-139.3 680.13,-135.8 670.13,-132.3 670.13,-139.3"/>
</g>
<!-- HomePageRoutingModule -->
<g id="node10" class="node">
<title>HomePageRoutingModule</title>
<polygon fill="#8dd3c7" stroke="black" points="190.09,-84.8 187.09,-88.8 166.09,-88.8 163.09,-84.8 23.91,-84.8 23.91,-48.8 190.09,-48.8 190.09,-84.8"/>
<text text-anchor="middle" x="107" y="-62.6" font-family="Times,serif" font-size="14.00">HomePageRoutingModule</text>
</g>
<!-- HomePageRoutingModule&#45;&gt;HomePageModule -->
<g id="edge9" class="edge">
<title>HomePageRoutingModule&#45;&gt;HomePageModule</title>
<path fill="none" stroke="black" d="M107,-84.81C107,-107.29 107,-142.8 107,-142.8 107,-142.8 670.5,-142.8 670.5,-142.8"/>
<polygon fill="black" stroke="black" points="670.5,-146.3 680.5,-142.8 670.5,-139.3 670.5,-146.3"/>
</g>
</g>
</svg>
