<?xml version="1.0" encoding="UTF-8" standalone="no"?>
<!DOCTYPE svg PUBLIC "-//W3C//DTD SVG 1.1//EN"
 "http://www.w3.org/Graphics/SVG/1.1/DTD/svg11.dtd">
<!-- Generated by graphviz version 2.47.3 (20210619.1520)
 -->
<!-- Title: dependencies Pages: 1 -->
<svg width="1678pt" height="247pt"
 viewBox="0.00 0.00 1678.00 246.80" xmlns="http://www.w3.org/2000/svg" xmlns:xlink="http://www.w3.org/1999/xlink">
<g id="graph0" class="graph" transform="scale(1 1) rotate(0) translate(4 242.8)">
<title>dependencies</title>
<polygon fill="white" stroke="transparent" points="-4,4 -4,-242.8 1674,-242.8 1674,4 -4,4"/>
<text text-anchor="middle" x="835" y="-8.2" font-family="sans-serif" font-size="14.00">dependencies</text>
<g id="clust1" class="cluster">
<title>cluster_AppModule</title>
<polygon fill="none" stroke="black" stroke-dasharray="1,5" points="8,-32.8 8,-230.8 298,-230.8 298,-32.8 8,-32.8"/>
</g>
<g id="clust2" class="cluster">
<title>cluster_AppModule_declarations</title>
<polygon fill="none" stroke="black" points="168,-40.8 168,-92.8 290,-92.8 290,-40.8 168,-40.8"/>
</g>
<g id="clust4" class="cluster">
<title>cluster_AppModule_imports</title>
<polygon fill="none" stroke="black" points="16,-40.8 16,-92.8 160,-92.8 160,-40.8 16,-40.8"/>
</g>
<g id="clust6" class="cluster">
<title>cluster_AppModule_bootstrap</title>
<polygon fill="none" stroke="black" points="96,-170.8 96,-222.8 220,-222.8 220,-170.8 96,-170.8"/>
</g>
<g id="clust14" class="cluster">
<title>cluster_HomePageModule</title>
<polygon fill="none" stroke="black" stroke-dasharray="1,5" points="306,-32.8 306,-157.8 1662,-157.8 1662,-32.8 306,-32.8"/>
</g>
<g id="clust15" class="cluster">
<title>cluster_HomePageModule_declarations</title>
<polygon fill="none" stroke="black" points="504,-40.8 504,-92.8 1654,-92.8 1654,-40.8 504,-40.8"/>
</g>
<g id="clust24" class="cluster">
<title>cluster_HomePageModule_imports</title>
<polygon fill="none" stroke="black" points="314,-40.8 314,-92.8 496,-92.8 496,-40.8 314,-40.8"/>
</g>
<!-- AppComponent -->
<g id="node1" class="node">
<title>AppComponent</title>
<polygon fill="#ffffb3" stroke="black" points="281.94,-84.8 176.06,-84.8 176.06,-48.8 281.94,-48.8 281.94,-84.8"/>
<text text-anchor="middle" x="229" y="-62.6" font-family="Times,serif" font-size="14.00">AppComponent</text>
</g>
<!-- AppModule -->
<g id="node2" class="node">
<title>AppModule</title>
<polygon fill="#8dd3c7" stroke="black" points="199.66,-149.8 196.66,-153.8 175.66,-153.8 172.66,-149.8 116.34,-149.8 116.34,-113.8 199.66,-113.8 199.66,-149.8"/>
<text text-anchor="middle" x="158" y="-127.6" font-family="Times,serif" font-size="14.00">AppModule</text>
</g>
<!-- AppComponent&#45;&gt;AppModule -->
<g id="edge1" class="edge">
<title>AppComponent&#45;&gt;AppModule</title>
<path fill="none" stroke="black" d="M188.05,-84.91C188.05,-84.91 188.05,-103.79 188.05,-103.79"/>
<polygon fill="black" stroke="black" points="184.55,-103.79 188.05,-113.79 191.55,-103.79 184.55,-103.79"/>
</g>
<!-- AppComponent  -->
<g id="node4" class="node">
<title>AppComponent </title>
<polygon fill="#80b1d3" stroke="black" points="212.44,-214.8 103.56,-214.8 103.56,-178.8 212.44,-178.8 212.44,-214.8"/>
<text text-anchor="middle" x="158" y="-192.6" font-family="Times,serif" font-size="14.00">AppComponent </text>
</g>
<!-- AppModule&#45;&gt;AppComponent  -->
<g id="edge3" class="edge">
<title>AppModule&#45;&gt;AppComponent </title>
<path fill="none" stroke="black" stroke-dasharray="1,5" d="M158,-149.91C158,-149.91 158,-168.79 158,-168.79"/>
<polygon fill="black" stroke="black" points="154.5,-168.79 158,-178.79 161.5,-168.79 154.5,-168.79"/>
</g>
<!-- AppRoutingModule -->
<g id="node3" class="node">
<title>AppRoutingModule</title>
<polygon fill="#8dd3c7" stroke="black" points="152.27,-84.8 149.27,-88.8 128.27,-88.8 125.27,-84.8 23.73,-84.8 23.73,-48.8 152.27,-48.8 152.27,-84.8"/>
<text text-anchor="middle" x="88" y="-62.6" font-family="Times,serif" font-size="14.00">AppRoutingModule</text>
</g>
<!-- AppRoutingModule&#45;&gt;AppModule -->
<g id="edge2" class="edge">
<title>AppRoutingModule&#45;&gt;AppModule</title>
<path fill="none" stroke="black" d="M134.28,-84.91C134.28,-84.91 134.28,-103.79 134.28,-103.79"/>
<polygon fill="black" stroke="black" points="130.78,-103.79 134.28,-113.79 137.78,-103.79 130.78,-103.79"/>
</g>
<!-- AdvertisingComponent -->
<g id="node5" class="node">
<title>AdvertisingComponent</title>
<polygon fill="#ffffb3" stroke="black" points="1645.93,-84.8 1498.07,-84.8 1498.07,-48.8 1645.93,-48.8 1645.93,-84.8"/>
<text text-anchor="middle" x="1572" y="-62.6" font-family="Times,serif" font-size="14.00">AdvertisingComponent</text>
</g>
<!-- HomePageModule -->
<g id="node13" class="node">
<title>HomePageModule</title>
<polygon fill="#8dd3c7" stroke="black" points="1099.47,-149.8 1096.47,-153.8 1075.47,-153.8 1072.47,-149.8 978.53,-149.8 978.53,-113.8 1099.47,-113.8 1099.47,-149.8"/>
<text text-anchor="middle" x="1039" y="-127.6" font-family="Times,serif" font-size="14.00">HomePageModule</text>
</g>
<!-- AdvertisingComponent&#45;&gt;HomePageModule -->
<g id="edge4" class="edge">
<title>AdvertisingComponent&#45;&gt;HomePageModule</title>
<path fill="none" stroke="black" d="M1572,-84.81C1572,-107.29 1572,-142.8 1572,-142.8 1572,-142.8 1109.62,-142.8 1109.62,-142.8"/>
<polygon fill="black" stroke="black" points="1109.62,-139.3 1099.62,-142.8 1109.62,-146.3 1109.62,-139.3"/>
</g>
<!-- AllPostsComponent -->
<g id="node6" class="node">
<title>AllPostsComponent</title>
<polygon fill="#ffffb3" stroke="black" points="1480.28,-84.8 1351.72,-84.8 1351.72,-48.8 1480.28,-48.8 1480.28,-84.8"/>
<text text-anchor="middle" x="1416" y="-62.6" font-family="Times,serif" font-size="14.00">AllPostsComponent</text>
</g>
<!-- AllPostsComponent&#45;&gt;HomePageModule -->
<g id="edge5" class="edge">
<title>AllPostsComponent&#45;&gt;HomePageModule</title>
<path fill="none" stroke="black" d="M1416,-84.93C1416,-105.37 1416,-135.8 1416,-135.8 1416,-135.8 1109.57,-135.8 1109.57,-135.8"/>
<polygon fill="black" stroke="black" points="1109.57,-132.3 1099.57,-135.8 1109.57,-139.3 1109.57,-132.3"/>
</g>
<!-- HeaderComponent -->
<g id="node7" class="node">
<title>HeaderComponent</title>
<polygon fill="#ffffb3" stroke="black" points="1333.74,-84.8 1212.26,-84.8 1212.26,-48.8 1333.74,-48.8 1333.74,-84.8"/>
<text text-anchor="middle" x="1273" y="-62.6" font-family="Times,serif" font-size="14.00">HeaderComponent</text>
</g>
<!-- HeaderComponent&#45;&gt;HomePageModule -->
<g id="edge6" class="edge">
<title>HeaderComponent&#45;&gt;HomePageModule</title>
<path fill="none" stroke="black" d="M1273,-85.07C1273,-103.36 1273,-128.8 1273,-128.8 1273,-128.8 1109.57,-128.8 1109.57,-128.8"/>
<polygon fill="black" stroke="black" points="1109.57,-125.3 1099.57,-128.8 1109.57,-132.3 1109.57,-125.3"/>
</g>
<!-- HomePage -->
<g id="node8" class="node">
<title>HomePage</title>
<polygon fill="#ffffb3" stroke="black" points="1193.92,-84.8 1116.08,-84.8 1116.08,-48.8 1193.92,-48.8 1193.92,-84.8"/>
<text text-anchor="middle" x="1155" y="-62.6" font-family="Times,serif" font-size="14.00">HomePage</text>
</g>
<!-- HomePage&#45;&gt;HomePageModule -->
<g id="edge7" class="edge">
<title>HomePage&#45;&gt;HomePageModule</title>
<path fill="none" stroke="black" d="M1155,-84.81C1155,-100.85 1155,-121.8 1155,-121.8 1155,-121.8 1109.72,-121.8 1109.72,-121.8"/>
<polygon fill="black" stroke="black" points="1109.72,-118.3 1099.72,-121.8 1109.72,-125.3 1109.72,-118.3"/>
</g>
<!-- ModalComponent -->
<g id="node9" class="node">
<title>ModalComponent</title>
<polygon fill="#ffffb3" stroke="black" points="1097.88,-84.8 980.12,-84.8 980.12,-48.8 1097.88,-48.8 1097.88,-84.8"/>
<text text-anchor="middle" x="1039" y="-62.6" font-family="Times,serif" font-size="14.00">ModalComponent</text>
</g>
<!-- ModalComponent&#45;&gt;HomePageModule -->
<g id="edge8" class="edge">
<title>ModalComponent&#45;&gt;HomePageModule</title>
<path fill="none" stroke="black" d="M1039,-84.91C1039,-84.91 1039,-103.79 1039,-103.79"/>
<polygon fill="black" stroke="black" points="1035.5,-103.79 1039,-113.79 1042.5,-103.79 1035.5,-103.79"/>
</g>
<!-- ProfileSummaryComponent -->
<g id="node10" class="node">
<title>ProfileSummaryComponent</title>
<polygon fill="#ffffb3" stroke="black" points="961.87,-84.8 788.13,-84.8 788.13,-48.8 961.87,-48.8 961.87,-84.8"/>
<text text-anchor="middle" x="875" y="-62.6" font-family="Times,serif" font-size="14.00">ProfileSummaryComponent</text>
</g>
<!-- ProfileSummaryComponent&#45;&gt;HomePageModule -->
<g id="edge9" class="edge">
<title>ProfileSummaryComponent&#45;&gt;HomePageModule</title>
<path fill="none" stroke="black" d="M875,-84.81C875,-100.85 875,-121.8 875,-121.8 875,-121.8 968.4,-121.8 968.4,-121.8"/>
<polygon fill="black" stroke="black" points="968.4,-125.3 978.4,-121.8 968.4,-118.3 968.4,-125.3"/>
</g>
<!-- StartPostComponent -->
<g id="node11" class="node">
<title>StartPostComponent</title>
<polygon fill="#ffffb3" stroke="black" points="769.89,-84.8 638.11,-84.8 638.11,-48.8 769.89,-48.8 769.89,-84.8"/>
<text text-anchor="middle" x="704" y="-62.6" font-family="Times,serif" font-size="14.00">StartPostComponent</text>
</g>
<!-- StartPostComponent&#45;&gt;HomePageModule -->
<g id="edge10" class="edge">
<title>StartPostComponent&#45;&gt;HomePageModule</title>
<path fill="none" stroke="black" d="M704,-85.07C704,-103.36 704,-128.8 704,-128.8 704,-128.8 968.33,-128.8 968.33,-128.8"/>
<polygon fill="black" stroke="black" points="968.33,-132.3 978.33,-128.8 968.33,-125.3 968.33,-132.3"/>
</g>
<!-- TabsComponent -->
<g id="node12" class="node">
<title>TabsComponent</title>
<polygon fill="#ffffb3" stroke="black" points="620.05,-84.8 511.95,-84.8 511.95,-48.8 620.05,-48.8 620.05,-84.8"/>
<text text-anchor="middle" x="566" y="-62.6" font-family="Times,serif" font-size="14.00">TabsComponent</text>
</g>
<!-- TabsComponent&#45;&gt;HomePageModule -->
<g id="edge11" class="edge">
<title>TabsComponent&#45;&gt;HomePageModule</title>
<path fill="none" stroke="black" d="M566,-84.93C566,-105.37 566,-135.8 566,-135.8 566,-135.8 968.13,-135.8 968.13,-135.8"/>
<polygon fill="black" stroke="black" points="968.13,-139.3 978.13,-135.8 968.13,-132.3 968.13,-139.3"/>
</g>
<!-- HomePageRoutingModule -->
<g id="node14" class="node">
<title>HomePageRoutingModule</title>
<polygon fill="#8dd3c7" stroke="black" points="488.09,-84.8 485.09,-88.8 464.09,-88.8 461.09,-84.8 321.91,-84.8 321.91,-48.8 488.09,-48.8 488.09,-84.8"/>
<text text-anchor="middle" x="405" y="-62.6" font-family="Times,serif" font-size="14.00">HomePageRoutingModule</text>
</g>
<!-- HomePageRoutingModule&#45;&gt;HomePageModule -->
<g id="edge12" class="edge">
<title>HomePageRoutingModule&#45;&gt;HomePageModule</title>
<path fill="none" stroke="black" d="M405,-84.81C405,-107.29 405,-142.8 405,-142.8 405,-142.8 968.5,-142.8 968.5,-142.8"/>
<polygon fill="black" stroke="black" points="968.5,-146.3 978.5,-142.8 968.5,-139.3 968.5,-146.3"/>
</g>
</g>
</svg>
